<svg xmlns="http://www.w3.org/2000/svg" width="26" height="26" viewBox="0 0 26 26" fill="none">
  <path d="M22.8522 3.54867H19.4408V0.58017C19.4408 0.259773 19.181 0 18.8604 0C18.54 0 18.28 0.259778 18.28 0.58017V3.54867H8.08527V0.58017C8.08527 0.259773 7.8253 0 7.5049 0C7.18431 0 6.92453 0.259778 6.92453 0.58017V3.54867H3.51305C2.70069 3.54964 1.92196 3.87275 1.34741 4.44727C0.773063 5.02162 0.449951 5.80035 0.448807 6.61271V22.936C0.449973 23.7483 0.773088 24.527 1.34741 25.1016C1.92196 25.6759 2.70069 25.9991 3.51305 26H22.852C23.6644 25.999 24.4431 25.6759 25.0177 25.1016C25.592 24.527 25.9151 23.7483 25.9163 22.936V6.61271C25.9151 5.80035 25.592 5.02162 25.0177 4.44727C24.4431 3.87272 23.6644 3.54961 22.852 3.54867H22.8522ZM3.51325 4.7092H6.92473V7.58871C6.92473 7.90911 7.18451 8.16888 7.5051 8.16888C7.8255 8.16888 8.08547 7.90911 8.08547 7.58871V4.7092H18.2802V7.58871C18.2802 7.90911 18.5402 8.16888 18.8606 8.16888C19.1812 8.16888 19.441 7.90911 19.441 7.58871V4.7092H22.8524C23.3571 4.70979 23.841 4.9105 24.1978 5.26744C24.5547 5.62436 24.7554 6.10815 24.756 6.61276V10.2016H1.60989V6.61276C1.61048 6.10815 1.81119 5.62437 2.16813 5.26744C2.52486 4.91051 3.00884 4.7098 3.51345 4.7092H3.51325ZM22.8522 24.8396H3.51325C3.00864 24.839 2.52466 24.6383 2.16793 24.2813C1.811 23.9244 1.61029 23.4406 1.60969 22.936V11.3625H24.7558V22.936C24.7552 23.4406 24.5545 23.9244 24.1976 24.2813C23.8408 24.6383 23.3569 24.839 22.8522 24.8396Z" fill="white"/>
  <path d="M8.78573 13.3955H6.22471C6.07082 13.3953 5.92316 13.4565 5.81435 13.5654C5.70554 13.6742 5.64434 13.8218 5.64453 13.9757V16.5367C5.64434 16.6906 5.70554 16.8383 5.81435 16.9471C5.92316 17.0561 6.07082 17.1171 6.22471 17.1171H8.78573C8.93962 17.1171 9.08728 17.0561 9.19609 16.9471C9.30489 16.8383 9.3661 16.6906 9.3659 16.5367V13.9757C9.3661 13.8218 9.30489 13.6742 9.19609 13.5654C9.08728 13.4565 8.93962 13.3953 8.78573 13.3955Z" fill="white"/>
  <path d="M14.4631 13.3955H11.9026C11.7487 13.3953 11.601 13.4565 11.4922 13.5654C11.3834 13.6742 11.3222 13.8218 11.3224 13.9757V16.5367C11.3222 16.6906 11.3834 16.8383 11.4922 16.9471C11.601 17.0561 11.7487 17.1171 11.9026 17.1171H14.4631C14.617 17.1171 14.7646 17.0561 14.8734 16.9471C14.9822 16.8383 15.0434 16.6906 15.0434 16.5367V13.9757C15.0434 13.8218 14.9822 13.6742 14.8734 13.5654C14.7646 13.4565 14.617 13.3953 14.4631 13.3955Z" fill="white"/>
  <path d="M20.1409 13.3955H17.5799C17.426 13.3953 17.2784 13.4565 17.1696 13.5654C17.0608 13.6742 16.9995 13.8218 16.9997 13.9757V16.5367C16.9995 16.6906 17.0608 16.8383 17.1696 16.9471C17.2784 17.0561 17.426 17.1171 17.5799 17.1171H20.1409C20.2948 17.1171 20.4425 17.0561 20.5513 16.9471C20.6601 16.8383 20.7213 16.6906 20.7211 16.5367V13.9757C20.7213 13.8218 20.6601 13.6742 20.5513 13.5654C20.4425 13.4565 20.2948 13.3953 20.1409 13.3955Z" fill="white"/>
  <path d="M8.78573 19.4277H6.22471C6.07082 19.4275 5.92316 19.4887 5.81435 19.5975C5.70554 19.7063 5.64434 19.854 5.64453 20.0079V22.5689C5.64434 22.7228 5.70554 22.8705 5.81435 22.9793C5.92316 23.0883 6.07082 23.1493 6.22471 23.1493H8.78573C8.93962 23.1493 9.08728 23.0883 9.19609 22.9793C9.30489 22.8705 9.3661 22.7228 9.3659 22.5689V20.0079C9.3661 19.854 9.30489 19.7063 9.19609 19.5975C9.08728 19.4887 8.93962 19.4275 8.78573 19.4277Z" fill="white"/>
  <path d="M14.4631 19.4277H11.9026C11.7487 19.4275 11.601 19.4887 11.4922 19.5975C11.3834 19.7063 11.3222 19.854 11.3224 20.0079V22.5689C11.3222 22.7228 11.3834 22.8705 11.4922 22.9793C11.601 23.0883 11.7487 23.1493 11.9026 23.1493H14.4631C14.617 23.1493 14.7646 23.0883 14.8734 22.9793C14.9822 22.8705 15.0434 22.7228 15.0434 22.5689V20.0079C15.0434 19.854 14.9822 19.7063 14.8734 19.5975C14.7646 19.4887 14.617 19.4275 14.4631 19.4277Z" fill="white"/>
  <path d="M20.1409 19.4277H17.5799C17.426 19.4275 17.2784 19.4887 17.1696 19.5975C17.0608 19.7063 16.9995 19.854 16.9997 20.0079V22.5689C16.9995 22.7228 17.0608 22.8705 17.1696 22.9793C17.2784 23.0883 17.426 23.1493 17.5799 23.1493H20.1409C20.2948 23.1493 20.4425 23.0883 20.5513 22.9793C20.6601 22.8705 20.7213 22.7228 20.7211 22.5689V20.0079C20.7213 19.854 20.6601 19.7063 20.5513 19.5975C20.4425 19.4887 20.2948 19.4275 20.1409 19.4277Z" fill="white"/>
</svg>