<svg xmlns="http://www.w3.org/2000/svg" width="29" height="31" viewBox="0 0 29 31" fill="none">
  <path d="M24.6786 11.5697C22.6419 8.30025 19.1121 6.05821 15.0436 5.79786V3.50075C15.6604 3.20334 16.088 2.57349 16.088 1.8425C16.088 0.825118 15.2629 0 14.2455 0C13.2281 0 12.403 0.825118 12.403 1.8425C12.403 2.57349 12.8296 3.20334 13.4474 3.50175V5.79886C9.37788 6.06021 5.84809 8.30225 3.81233 11.5707C1.69947 12.9726 0.301575 15.3598 0.301575 18.0565C0.301575 20.5899 1.53525 22.851 3.43682 24.2779C5.22725 27.8708 1.50721 30.984 1.50721 30.984C1.50721 30.984 5.94522 31.2484 9.25271 29.6282C10.7758 30.3041 12.4621 30.6806 14.2365 30.6806C18.5203 30.6806 22.2924 28.4906 24.4964 25.1701C24.4974 25.1681 24.4994 25.1661 24.5004 25.1641C24.6596 24.9238 24.8108 24.6785 24.953 24.4261C24.956 24.4201 24.959 24.4151 24.962 24.4091C24.981 24.375 24.9991 24.341 25.0171 24.3069C26.9387 22.881 28.1884 20.6069 28.1884 18.0575C28.1884 15.3608 26.7905 12.9736 24.6786 11.5707V11.5697ZM20.3257 24.2599H8.16323C4.70855 24.2599 1.89774 21.4771 1.89774 18.0565C1.89774 14.6358 4.70855 11.8521 8.16323 11.8521H20.3257C23.7804 11.8521 26.5912 14.6348 26.5912 18.0565C26.5912 21.4781 23.7804 24.2599 20.3257 24.2599Z" fill="white"/>
  <path d="M10.183 18.0565C10.183 18.9717 9.43996 19.7147 8.52472 19.7147C7.60948 19.7147 6.86647 18.9717 6.86647 18.0565C6.86647 17.1412 7.60948 16.3982 8.52472 16.3982C9.43996 16.3982 10.183 17.1412 10.183 18.0565Z" fill="white"/>
  <path d="M21.7316 18.0565C21.7316 18.9717 20.9886 19.7147 20.0734 19.7147C19.1581 19.7147 18.4151 18.9717 18.4151 18.0565C18.4151 17.1412 19.1571 16.3982 20.0734 16.3982C20.9896 16.3982 21.7316 17.1412 21.7316 18.0565Z" fill="white"/>
</svg>