<svg xmlns="http://www.w3.org/2000/svg" width="17" height="17" viewBox="0 0 17 17" fill="none">
  <path d="M1.57063 14.4123H0.973191C0.748346 14.4122 0.532736 14.3229 0.373706 14.1639C0.214676 14.005 0.125227 13.7894 0.125 13.5646V8.51007C0.125084 8.25772 0.213168 8.01329 0.374078 7.81889C0.534989 7.62449 0.758653 7.49229 1.00655 7.44506L2.75026 7.11448C2.81466 7.10365 2.88073 7.1185 2.93432 7.15582C2.9879 7.19315 3.02472 7.24999 3.03688 7.31415C3.04904 7.37831 3.03557 7.44468 2.99937 7.49903C2.96316 7.55338 2.9071 7.59137 2.8432 7.60486L1.09949 7.93601C0.965792 7.96137 0.84513 8.03259 0.758315 8.13738C0.671501 8.24218 0.623976 8.37399 0.623936 8.51007V13.5646C0.624012 13.657 0.660748 13.7457 0.726088 13.8111C0.791428 13.8764 0.880036 13.9133 0.972479 13.9134H1.5712C1.63737 13.9134 1.70082 13.9397 1.7476 13.9865C1.79439 14.0333 1.82067 14.0967 1.82067 14.1629C1.82067 14.229 1.79439 14.2925 1.7476 14.3393C1.70082 14.3861 1.63737 14.4123 1.5712 14.4123H1.57063Z" fill="white"/>
  <path d="M4.87915 16.8751C4.84639 16.8751 4.81394 16.8686 4.78366 16.8561C4.75339 16.8436 4.72588 16.8252 4.70271 16.802C4.67954 16.7789 4.66117 16.7514 4.64864 16.7211C4.63611 16.6908 4.62966 16.6584 4.62968 16.6256V8.37875C4.62971 8.31918 4.65105 8.26158 4.68985 8.21637C4.72865 8.17116 4.78235 8.14133 4.84123 8.13228L7.19949 7.77076C7.30745 7.75401 7.41004 7.71235 7.49911 7.64908C7.58818 7.58581 7.6613 7.50268 7.71268 7.40626L9.07022 4.84101C9.09264 4.80057 9.10678 4.75606 9.1118 4.71009C9.11682 4.66411 9.11263 4.6176 9.09946 4.57327C9.08629 4.52894 9.06441 4.48768 9.03511 4.4519C9.0058 4.41613 8.96965 4.38656 8.92878 4.36492C8.88791 4.34328 8.84314 4.33001 8.79708 4.32588C8.75102 4.32175 8.70459 4.32685 8.66053 4.34088C8.61646 4.3549 8.57563 4.37758 8.54043 4.40757C8.50523 4.43757 8.47637 4.47428 8.45553 4.51556L7.15487 6.97204C7.13668 7.00642 7.11069 7.03606 7.07897 7.05859C7.04726 7.08112 7.01072 7.0959 6.97226 7.10176L3.6904 7.60497C3.65776 7.61054 3.62435 7.60955 3.59209 7.60207C3.55984 7.59459 3.5294 7.58076 3.50255 7.56139C3.4757 7.54203 3.45296 7.51751 3.43568 7.48927C3.4184 7.46103 3.40691 7.42963 3.40189 7.39691C3.39687 7.36418 3.39841 7.33079 3.40642 7.29866C3.41444 7.26654 3.42877 7.23633 3.44857 7.2098C3.46838 7.18327 3.49327 7.16095 3.5218 7.14414C3.55032 7.12733 3.5819 7.11636 3.6147 7.11188L6.77269 6.6272L8.01532 4.28192C8.12043 4.08343 8.30008 3.93482 8.51475 3.86879C8.72942 3.80276 8.96153 3.82471 9.16002 3.92981C9.35851 4.03492 9.50712 4.21456 9.57315 4.42924C9.63919 4.64391 9.61724 4.87602 9.51213 5.07451L8.15346 7.64047C8.06556 7.80547 7.94047 7.94774 7.78808 8.05604C7.63569 8.16433 7.4602 8.23568 7.27547 8.26443L5.12848 8.59287V16.6256C5.12848 16.6917 5.10221 16.7552 5.05546 16.8019C5.00871 16.8487 4.94529 16.875 4.87915 16.8751Z" fill="white"/>
  <path d="M1.57064 16.875C1.50447 16.875 1.44102 16.8487 1.39423 16.802C1.34745 16.7552 1.32117 16.6917 1.32117 16.6256V9.53581C1.32117 9.50305 1.32762 9.47061 1.34016 9.44035C1.35269 9.41008 1.37107 9.38258 1.39423 9.35941C1.4174 9.33625 1.4449 9.31787 1.47517 9.30534C1.50543 9.2928 1.53787 9.28635 1.57064 9.28635C1.6034 9.28635 1.63584 9.2928 1.6661 9.30534C1.69637 9.31787 1.72387 9.33625 1.74704 9.35941C1.7702 9.38258 1.78858 9.41008 1.80111 9.44035C1.81365 9.47061 1.8201 9.50305 1.8201 9.53581V16.6256C1.8201 16.6917 1.79382 16.7552 1.74704 16.802C1.70025 16.8487 1.6368 16.875 1.57064 16.875Z" fill="white"/>
  <path d="M3.22553 16.875C3.19276 16.875 3.16031 16.8685 3.13004 16.856C3.09976 16.8435 3.07225 16.8251 3.04908 16.8019C3.02592 16.7788 3.00754 16.7512 2.99501 16.721C2.98248 16.6907 2.97604 16.6582 2.97606 16.6255V13.4608C2.97606 13.3946 3.00234 13.3312 3.04913 13.2844C3.09591 13.2376 3.15936 13.2113 3.22553 13.2113C3.29169 13.2113 3.35514 13.2376 3.40193 13.2844C3.44871 13.3312 3.475 13.3946 3.475 13.4608V16.6255C3.475 16.6916 3.44871 16.7551 3.40193 16.8019C3.35514 16.8487 3.29169 16.875 3.22553 16.875Z" fill="white"/>
  <path d="M3.22554 7.66355C2.84652 7.66372 2.47596 7.55148 2.16073 7.34102C1.8455 7.13057 1.59976 6.83136 1.4546 6.48124C1.30943 6.13111 1.27136 5.7458 1.3452 5.37404C1.41904 5.00228 1.60148 4.66076 1.86943 4.39269C2.13738 4.12462 2.47881 3.94204 2.85054 3.86803C3.22227 3.79402 3.6076 3.83192 3.95779 3.97693C4.30798 4.12193 4.6073 4.36754 4.81789 4.68267C5.02848 4.99781 5.14089 5.36832 5.14089 5.74735C5.14032 6.25523 4.93837 6.74217 4.57932 7.10138C4.22027 7.46059 3.73343 7.66275 3.22554 7.66355ZM3.22554 4.33023C2.94522 4.3302 2.67119 4.4133 2.4381 4.56902C2.20501 4.72474 2.02333 4.94608 1.91605 5.20506C1.80876 5.46404 1.78068 5.74901 1.83536 6.02395C1.89004 6.29888 2.02503 6.55143 2.22324 6.74965C2.42146 6.94786 2.67401 7.08285 2.94894 7.13753C3.22388 7.19221 3.50885 7.16413 3.76783 7.05684C4.02681 6.94956 4.24815 6.76788 4.40387 6.53479C4.55959 6.3017 4.64269 6.02767 4.64266 5.74735C4.64221 5.37164 4.49276 5.01145 4.2271 4.74579C3.96144 4.48013 3.60125 4.33068 3.22554 4.33023Z" fill="white"/>
  <path d="M3.22554 4.3304C3.19271 4.33051 3.16019 4.32414 3.12983 4.31165C3.09947 4.29916 3.07188 4.2808 3.04863 4.25762C3.02539 4.23444 3.00695 4.2069 2.99438 4.17658C2.9818 4.14626 2.97534 4.11375 2.97536 4.08093V1.48418C2.97536 1.41802 3.00164 1.35456 3.04842 1.30778C3.09521 1.26099 3.15866 1.23471 3.22483 1.23471C3.29099 1.23471 3.35444 1.26099 3.40123 1.30778C3.44801 1.35456 3.47429 1.41802 3.47429 1.48418V4.08093C3.47429 4.14697 3.44811 4.21031 3.40148 4.25708C3.35485 4.30384 3.29158 4.33021 3.22554 4.3304Z" fill="white"/>
  <path d="M16.0388 10.0824H4.87915C4.81299 10.0824 4.74954 10.0561 4.70275 10.0093C4.65597 9.96257 4.62968 9.89911 4.62968 9.83295C4.62968 9.76678 4.65597 9.70333 4.70275 9.65655C4.74954 9.60976 4.81299 9.58348 4.87915 9.58348H15.7895V1.48418C15.7895 1.41802 15.8157 1.35456 15.8625 1.30778C15.9093 1.26099 15.9728 1.23471 16.0389 1.23471C16.1051 1.23471 16.1685 1.26099 16.2153 1.30778C16.2621 1.35456 16.2884 1.41802 16.2884 1.48418V9.83309C16.2884 9.86585 16.2819 9.89829 16.2694 9.92855C16.2568 9.95881 16.2384 9.9863 16.2152 10.0094C16.1921 10.0326 16.1645 10.051 16.1343 10.0635C16.104 10.076 16.0715 10.0824 16.0388 10.0824Z" fill="white"/>
  <path d="M16.6255 1.73357H2.63808C2.57192 1.73357 2.50846 1.70729 2.46168 1.6605C2.41489 1.61372 2.38861 1.55027 2.38861 1.4841V0.873404C2.38884 0.674985 2.46776 0.484757 2.60806 0.344453C2.74837 0.204149 2.9386 0.125226 3.13702 0.125H16.1266C16.325 0.125226 16.5153 0.204149 16.6556 0.344453C16.7959 0.484757 16.8748 0.674985 16.875 0.873404V1.4841C16.875 1.55027 16.8487 1.61372 16.8019 1.6605C16.7552 1.70729 16.6917 1.73357 16.6255 1.73357ZM2.88755 1.23463H16.3761V0.873404C16.376 0.807264 16.3497 0.743855 16.3029 0.697087C16.2562 0.650319 16.1927 0.624012 16.1266 0.623936H3.13702C3.07089 0.624049 3.0075 0.650369 2.96074 0.697129C2.91398 0.743888 2.88766 0.807276 2.88755 0.873404V1.23463Z" fill="white"/>
  <path d="M9.63187 11.8831C9.5991 11.8831 9.56665 11.8767 9.53638 11.8642C9.5061 11.8516 9.47859 11.8333 9.45543 11.8101C9.43226 11.7869 9.41388 11.7594 9.40135 11.7291C9.38882 11.6989 9.38238 11.6664 9.3824 11.6336V9.83306C9.3824 9.76689 9.40868 9.70344 9.45547 9.65666C9.50225 9.60987 9.56571 9.58359 9.63187 9.58359C9.69803 9.58359 9.76148 9.60987 9.80827 9.65666C9.85505 9.70344 9.88134 9.76689 9.88134 9.83306V11.6336C9.88134 11.6998 9.85505 11.7633 9.80827 11.81C9.76148 11.8568 9.69803 11.8831 9.63187 11.8831Z" fill="white"/>
  <path d="M9.63188 13.1809C9.45426 13.1809 9.28062 13.1282 9.13293 13.0295C8.98524 12.9308 8.87013 12.7906 8.80216 12.6265C8.73418 12.4624 8.7164 12.2818 8.75105 12.1076C8.7857 11.9334 8.87124 11.7733 8.99684 11.6477C9.12244 11.5221 9.28246 11.4366 9.45667 11.402C9.63088 11.3673 9.81146 11.3851 9.97556 11.4531C10.1397 11.521 10.2799 11.6362 10.3786 11.7838C10.4773 11.9315 10.53 12.1052 10.53 12.2828C10.5296 12.5209 10.4349 12.7491 10.2665 12.9175C10.0982 13.0858 9.86996 13.1805 9.63188 13.1809ZM9.63188 11.8836C9.55294 11.8836 9.47577 11.9071 9.41013 11.9509C9.34449 11.9948 9.29333 12.0571 9.26311 12.13C9.2329 12.203 9.225 12.2832 9.2404 12.3607C9.2558 12.4381 9.29382 12.5092 9.34964 12.565C9.40546 12.6209 9.47658 12.6589 9.55401 12.6743C9.63144 12.6897 9.71169 12.6818 9.78463 12.6516C9.85756 12.6213 9.9199 12.5702 9.96376 12.5045C10.0076 12.4389 10.031 12.3617 10.031 12.2828C10.031 12.1769 9.98895 12.0753 9.91411 12.0004C9.83928 11.9255 9.73778 11.8833 9.63188 11.8831V11.8836Z" fill="white"/>
</svg>