<svg width="18" height="24" viewBox="0 0 18 24" fill="none" xmlns="http://www.w3.org/2000/svg">
<g id="Layer_1" clip-path="url(#clip0_7926_224)">
<path id="Vector" fill-rule="evenodd" clip-rule="evenodd" d="M1.7108 0H15.4264C16.3676 0 17.1372 0.7692 17.1372 1.7108V6.8528H15.4264V1.7108H1.7108V6.8528H0V1.7108C0 0.7692 0.7692 0 1.7108 0ZM6.8528 18.858H10.2844V20.5688H6.8528V18.858ZM1.7108 8.5736H3.4216V6.8528C3.4216 5.9116 4.2012 5.142 5.1424 5.142H11.9952C12.9364 5.142 13.706 5.9112 13.706 6.8528V8.5736H15.4268V10.2844H1.7108V8.5736ZM5.142 8.5736H11.9948V6.8528H5.142V8.5736ZM13.7056 11.9948V13.7156C13.7056 14.6568 12.9364 15.4264 11.9948 15.4264H5.142C4.2008 15.4264 3.4212 14.6572 3.4212 13.7156V11.9948H5.142V13.7156H11.9948V11.9948H13.7056ZM17.1372 11.9948V22.2792C17.1372 23.2308 16.368 24 15.4264 24H1.7108C0.7696 24 0 23.2308 0 22.2792V11.9948H1.7108V22.2792H15.4264V11.9948H17.1372Z" fill="white"/>
</g>
<defs>
<clipPath id="clip0_7926_224">
<rect width="17.1372" height="24" fill="white"/>
</clipPath>
</defs>
</svg>
